<svg width="39" height="38" viewBox="0 0 39 38" fill="none" xmlns="http://www.w3.org/2000/svg">
<g id="Google logo" clip-path="url(#clip0_1_177)">
<path id="Vector" d="M38.9794 19.3554C38.9794 17.7986 38.8467 16.6625 38.5596 15.4844H19.8884V22.5112H30.848C30.6271 24.2574 29.4339 26.8873 26.7823 28.6544L26.7452 28.8897L32.6486 33.2441L33.0576 33.283C36.8139 29.9799 38.9794 25.12 38.9794 19.3554Z" fill="#4285F4"/>
<path id="Vector_2" d="M19.8884 37.8694C25.2577 37.8694 29.7652 36.1863 33.0576 33.283L26.7823 28.6544C25.1031 29.7695 22.8492 30.5479 19.8884 30.5479C14.6296 30.5479 10.1662 27.2449 8.57517 22.6796L8.34196 22.6984L2.20345 27.2217L2.12317 27.4342C5.39335 33.6195 12.1106 37.8694 19.8884 37.8694Z" fill="#34A853"/>
<path id="Vector_3" d="M8.57525 22.6796C8.15543 21.5015 7.91247 20.2391 7.91247 18.9347C7.91247 17.6303 8.15543 16.368 8.55316 15.1898L8.54204 14.9389L2.3266 10.343L2.12324 10.4351C0.775445 13.0018 0.0020752 15.8841 0.0020752 18.9347C0.0020752 21.9853 0.775445 24.8675 2.12324 27.4343L8.57525 22.6796Z" fill="#FBBC05"/>
<path id="Vector_4" d="M19.8884 7.32138C23.6226 7.32138 26.1415 8.85719 27.5778 10.1406L33.1902 4.92303C29.7433 1.87244 25.2577 0 19.8884 0C12.1106 0 5.39335 4.24976 2.12317 10.4351L8.55309 15.1898C10.1662 10.6245 14.6296 7.32138 19.8884 7.32138Z" fill="#EB4335"/>
</g>
<defs>
<clipPath id="clip0_1_177">
<rect width="39" height="38" fill="white"/>
</clipPath>
</defs>
</svg>
