<svg width="77" height="74" viewBox="0 0 77 74" fill="none" xmlns="http://www.w3.org/2000/svg">
<g id="Group 4" filter="url(#filter0_d_1_187)">
<ellipse id="Ellipse 3" cx="38.5" cy="33" rx="34.5" ry="33" fill="#ECE9EC"/>
<g id="Group">
<path id="Vector" d="M54.0242 43.7815C53.4185 45.1031 52.7014 46.3195 51.8703 47.4382C50.7378 48.9628 49.8104 50.0181 49.0958 50.6044C47.9879 51.5663 46.8009 52.0589 45.5298 52.087C44.6173 52.087 43.5168 51.842 42.2359 51.3446C40.9507 50.8494 39.7696 50.6044 38.6897 50.6044C37.5571 50.6044 36.3424 50.8494 35.0431 51.3446C33.7418 51.842 32.6936 52.101 31.8921 52.1268C30.6732 52.1756 29.4582 51.6689 28.2455 50.6044C27.4715 49.9668 26.5033 48.8739 25.3435 47.326C24.0991 45.6728 23.0761 43.7558 22.2746 41.5703C21.4163 39.2096 20.986 36.9237 20.986 34.7106C20.986 32.1755 21.5661 29.989 22.7281 28.1568C23.6414 26.6851 24.8563 25.5241 26.377 24.6719C27.8976 23.8196 29.5406 23.3853 31.3099 23.3575C32.2781 23.3575 33.5477 23.6403 35.1254 24.196C36.6987 24.7536 37.7089 25.0363 38.1518 25.0363C38.4829 25.0363 39.6052 24.7057 41.5076 24.0466C43.3066 23.4353 44.825 23.1821 46.0689 23.2818C49.4395 23.5387 51.9718 24.7933 53.6557 27.0535C50.6413 28.7781 49.1502 31.1937 49.1798 34.2924C49.207 36.706 50.1344 38.7146 51.957 40.3094C52.7827 41.0496 53.7053 41.6216 54.7315 42.0279C54.5092 42.6373 54.2739 43.2211 54.0242 43.7815ZM46.2939 15.059C46.2939 16.9508 45.5619 18.7172 44.1029 20.3522C42.3422 22.2958 40.2125 23.4189 37.903 23.2417C37.8736 23.0147 37.8565 22.7759 37.8565 22.5248C37.8565 20.7087 38.6939 18.7651 40.1809 17.1759C40.9232 16.3713 41.8674 15.7022 43.0123 15.1685C44.1548 14.6428 45.2355 14.352 46.2519 14.3022C46.2815 14.5552 46.2939 14.8081 46.2939 15.059V15.059Z" fill="black"/>
</g>
</g>
<defs>
<filter id="filter0_d_1_187" x="0" y="0" width="77" height="74" filterUnits="userSpaceOnUse" color-interpolation-filters="sRGB">
<feFlood flood-opacity="0" result="BackgroundImageFix"/>
<feColorMatrix in="SourceAlpha" type="matrix" values="0 0 0 0 0 0 0 0 0 0 0 0 0 0 0 0 0 0 127 0" result="hardAlpha"/>
<feOffset dy="4"/>
<feGaussianBlur stdDeviation="2"/>
<feComposite in2="hardAlpha" operator="out"/>
<feColorMatrix type="matrix" values="0 0 0 0 0 0 0 0 0 0 0 0 0 0 0 0 0 0 0.25 0"/>
<feBlend mode="normal" in2="BackgroundImageFix" result="effect1_dropShadow_1_187"/>
<feBlend mode="normal" in="SourceGraphic" in2="effect1_dropShadow_1_187" result="shape"/>
</filter>
</defs>
</svg>
