<svg width="79" height="74" viewBox="0 0 79 74" fill="none" xmlns="http://www.w3.org/2000/svg">
<g id="Group 5" filter="url(#filter0_d_1_182)">
<ellipse id="Ellipse 2" cx="39.5" cy="33" rx="35.5" ry="33" fill="#ECE9EC"/>
<g id="Facbook">
<path id="Vector" d="M39.5376 52.13C50.6006 52.13 59.5689 43.662 59.5689 33.2161C59.5689 22.7703 50.6006 14.3022 39.5376 14.3022C28.4746 14.3022 19.5062 22.7703 19.5062 33.2161C19.5062 43.662 28.4746 52.13 39.5376 52.13Z" fill="#1977F3"/>
<path id="Vector_2" d="M47.3349 38.6848L48.2223 33.2162H42.6672V29.668C42.6672 28.1732 43.4419 26.713 45.9321 26.713H48.4589V22.0583C48.4589 22.0583 46.1659 21.6886 43.9743 21.6886C39.3996 21.6886 36.408 24.3058 36.408 29.0483V33.2162H31.3206V38.6848H36.408V51.9013C37.4277 52.0529 38.4728 52.1301 39.5376 52.1301C40.6024 52.1301 41.6475 52.0503 42.6672 51.9013V38.6848H47.3349Z" fill="white"/>
</g>
</g>
<defs>
<filter id="filter0_d_1_182" x="0" y="0" width="79" height="74" filterUnits="userSpaceOnUse" color-interpolation-filters="sRGB">
<feFlood flood-opacity="0" result="BackgroundImageFix"/>
<feColorMatrix in="SourceAlpha" type="matrix" values="0 0 0 0 0 0 0 0 0 0 0 0 0 0 0 0 0 0 127 0" result="hardAlpha"/>
<feOffset dy="4"/>
<feGaussianBlur stdDeviation="2"/>
<feComposite in2="hardAlpha" operator="out"/>
<feColorMatrix type="matrix" values="0 0 0 0 0 0 0 0 0 0 0 0 0 0 0 0 0 0 0.25 0"/>
<feBlend mode="normal" in2="BackgroundImageFix" result="effect1_dropShadow_1_182"/>
<feBlend mode="normal" in="SourceGraphic" in2="effect1_dropShadow_1_182" result="shape"/>
</filter>
</defs>
</svg>
