<svg width="23" height="26" viewBox="0 0 23 26" fill="none" xmlns="http://www.w3.org/2000/svg">
<g id="Group">
<path id="Vector" d="M22.5179 20.0922C22.1051 20.993 21.6163 21.822 21.0498 22.5845C20.278 23.6236 19.6459 24.3429 19.1588 24.7425C18.4037 25.3981 17.5947 25.7339 16.7284 25.753C16.1064 25.753 15.3564 25.586 14.4833 25.247C13.6074 24.9095 12.8024 24.7425 12.0663 24.7425C11.2944 24.7425 10.4665 24.9095 9.58093 25.247C8.69402 25.586 7.97955 25.7625 7.43328 25.7801C6.60252 25.8133 5.77445 25.4681 4.94788 24.7425C4.42032 24.3079 3.76048 23.563 2.96997 22.508C2.12184 21.3813 1.42457 20.0747 0.878301 18.5851C0.293273 16.9761 0 15.4181 0 13.9097C0 12.1819 0.395416 10.6917 1.18742 9.44285C1.80987 8.43977 2.63794 7.64849 3.67434 7.06763C4.71074 6.48675 5.83057 6.19073 7.03653 6.17179C7.6964 6.17179 8.5617 6.36453 9.63705 6.74329C10.7094 7.12331 11.3979 7.31605 11.6997 7.31605C11.9254 7.31605 12.6903 7.0907 13.9869 6.64144C15.2131 6.2248 16.248 6.05228 17.0958 6.12023C19.3931 6.29529 21.1191 7.15037 22.2668 8.69091C20.2122 9.86635 19.1959 11.5127 19.2161 13.6247C19.2346 15.2698 19.8667 16.6387 21.1089 17.7257C21.6718 18.2302 22.3006 18.6201 23 18.897C22.8484 19.3124 22.6881 19.7103 22.5179 20.0922ZM17.2492 0.515791C17.2492 1.8052 16.7503 3.00911 15.7558 4.12345C14.5558 5.44816 13.1042 6.21366 11.5302 6.09287C11.5101 5.93818 11.4985 5.77537 11.4985 5.60428C11.4985 4.36646 12.0692 3.04173 13.0827 1.9586C13.5887 1.41018 14.2322 0.954188 15.0125 0.59043C15.7912 0.232099 16.5278 0.0339348 17.2205 0C17.2407 0.172374 17.2492 0.344758 17.2492 0.515774V0.515791Z" fill="black"/>
</g>
</svg>
