<svg width="245" height="29" viewBox="0 0 245 29" fill="none" xmlns="http://www.w3.org/2000/svg">
<g id="Group 30" filter="url(#filter0_d_1_168)">
<path id="Subtract" fill-rule="evenodd" clip-rule="evenodd" d="M4.00803 10C4.00268 10.1492 4 10.2997 4 10.4515C4 12.3742 4.42933 14.0915 5.288 15.6035C6.16533 17.1155 7.35067 18.3009 8.844 19.1595C10.356 19.9995 12.0453 20.4195 13.912 20.4195C16.1147 20.4195 18.028 19.8689 19.652 18.7675C21.2947 17.6475 22.4427 16.0889 23.096 14.0915H18.588C18.14 15.0249 17.5053 15.7342 16.684 16.2195C15.8813 16.6862 14.948 16.9195 13.884 16.9195C12.7453 16.9195 11.728 16.6582 10.832 16.1355C9.95467 15.5942 9.264 14.8382 8.76 13.8675C8.27467 12.8782 8.032 11.7395 8.032 10.4515C8.032 10.2987 8.03532 10.1482 8.04196 10H4.00803ZM27.5642 10V20.2515H31.4842V12.5235C31.4842 11.437 31.6602 10.5959 32.0122 10H27.5642ZM39.2994 10C39.0975 10.7713 38.9965 11.6031 38.9965 12.4955C38.9965 14.0822 39.3232 15.4822 39.9765 16.6955C40.6485 17.9089 41.5725 18.8515 42.7485 19.5235C43.9432 20.1769 45.2872 20.5035 46.7805 20.5035C48.6285 20.5035 50.1872 20.0275 51.4565 19.0755C52.7258 18.1049 53.5845 16.8729 54.0325 15.3795H49.8045C49.1885 16.6302 48.1525 17.2555 46.6965 17.2555C45.6885 17.2555 44.8392 16.9382 44.1485 16.3035C43.4578 15.6689 43.0658 14.7915 42.9725 13.6715H54.3125C54.3872 13.2235 54.4245 12.7195 54.4245 12.1595C54.4245 11.3943 54.3408 10.6744 54.1735 10H50.2004C50.3028 10.3181 50.3576 10.6646 50.3645 11.0395H43.0005C43.0543 10.6627 43.1409 10.3162 43.2602 10H39.2994ZM57.6805 10C57.492 10.7589 57.3978 11.5721 57.3978 12.4395C57.3978 14.0262 57.7057 15.4355 58.3218 16.6675C58.9564 17.8809 59.8057 18.8235 60.8698 19.4955C61.9524 20.1675 63.1471 20.5035 64.4538 20.5035C65.6111 20.5035 66.6284 20.2702 67.5057 19.8035C68.4018 19.3182 69.1018 18.7115 69.6058 17.9835V20.2515H73.5538V10H69.013C69.024 10.0197 69.035 10.0395 69.0458 10.0595C69.4191 10.7315 69.6058 11.5435 69.6058 12.4955C69.6058 13.4475 69.4191 14.2689 69.0458 14.9595C68.6724 15.6315 68.1684 16.1542 67.5337 16.5275C66.8991 16.8822 66.2178 17.0595 65.4897 17.0595C64.7804 17.0595 64.1084 16.8729 63.4738 16.4995C62.8577 16.1262 62.3537 15.5942 61.9618 14.9035C61.5884 14.1942 61.4017 13.3729 61.4017 12.4395C61.4017 11.5062 61.5884 10.7035 61.9618 10.0315C61.9677 10.021 61.9738 10.0105 61.9798 10H57.6805ZM79.1183 10V15.4355C79.1183 18.6462 80.7703 20.2515 84.0743 20.2515H86.5383V16.9475H84.7183C84.121 16.9475 83.6917 16.8355 83.4303 16.6115C83.1877 16.3689 83.0663 15.9862 83.0663 15.4635V10H79.1183ZM89.7726 10C89.5707 10.7713 89.4698 11.6031 89.4698 12.4955C89.4698 14.0822 89.7964 15.4822 90.4498 16.6955C91.1218 17.9089 92.0458 18.8515 93.2218 19.5235C94.4165 20.1769 95.7605 20.5035 97.2538 20.5035C99.1018 20.5035 100.66 20.0275 101.93 19.0755C103.199 18.1049 104.058 16.8729 104.506 15.3795H100.278C99.6618 16.6302 98.6258 17.2555 97.1698 17.2555C96.1618 17.2555 95.3124 16.9382 94.6218 16.3035C93.9311 15.6689 93.5391 14.7915 93.4458 13.6715H104.786C104.86 13.2235 104.898 12.7195 104.898 12.1595C104.898 11.3943 104.814 10.6744 104.647 10H100.674C100.776 10.3181 100.831 10.6646 100.838 11.0395H93.4738C93.5276 10.6627 93.6142 10.3162 93.7335 10H89.7726ZM119.148 10L115.467 20.2515H119.583L120.871 16.5275H128.655L129.943 20.2515H134.087L130.406 10H126.418L127.591 13.3915H121.935L123.108 10H119.148ZM137.131 10C136.928 10.7679 136.826 11.5998 136.826 12.4955C136.826 14.1009 137.153 15.5102 137.806 16.7235C138.459 17.9182 139.365 18.8515 140.522 19.5235C141.679 20.1769 143.005 20.5035 144.498 20.5035C146.402 20.5035 147.989 20.0089 149.258 19.0195C150.527 18.0302 151.377 16.6955 151.806 15.0155H147.578C147.093 16.4342 146.057 17.1435 144.47 17.1435C143.35 17.1435 142.463 16.7422 141.81 15.9395C141.157 15.1182 140.83 13.9702 140.83 12.4955C140.83 11.5147 140.971 10.6829 141.253 10H137.131ZM155.095 10C154.891 10.7679 154.79 11.5998 154.79 12.4955C154.79 14.1009 155.116 15.5102 155.77 16.7235C156.423 17.9182 157.328 18.8515 158.486 19.5235C159.643 20.1769 160.968 20.5035 162.462 20.5035C164.366 20.5035 165.952 20.0089 167.222 19.0195C168.491 18.0302 169.34 16.6955 169.77 15.0155H165.542C165.056 16.4342 164.02 17.1435 162.434 17.1435C161.314 17.1435 160.427 16.7422 159.774 15.9395C159.12 15.1182 158.794 13.9702 158.794 12.4955C158.794 11.5147 158.935 10.6829 159.216 10H155.095ZM173.108 10C172.89 10.773 172.781 11.6049 172.781 12.4955C172.781 14.0822 173.117 15.4822 173.789 16.6955C174.48 17.9089 175.423 18.8515 176.617 19.5235C177.812 20.1769 179.156 20.5035 180.649 20.5035C182.161 20.5035 183.524 20.1769 184.737 19.5235C185.969 18.8515 186.94 17.9089 187.649 16.6955C188.377 15.4822 188.741 14.0822 188.741 12.4955C188.741 11.6049 188.63 10.773 188.406 10H184.183C184.534 10.6774 184.709 11.5092 184.709 12.4955C184.709 13.4849 184.523 14.3249 184.149 15.0155C183.776 15.7062 183.272 16.2289 182.637 16.5835C182.021 16.9195 181.359 17.0875 180.649 17.0875C179.529 17.0875 178.596 16.6955 177.849 15.9115C177.121 15.1089 176.757 13.9702 176.757 12.4955C176.757 11.5092 176.924 10.6774 177.258 10H173.108ZM192.597 10V13.8395C192.597 15.2209 192.858 16.4155 193.381 17.4235C193.922 18.4129 194.66 19.1689 195.593 19.6915C196.526 20.1955 197.6 20.4475 198.813 20.4475C199.765 20.4475 200.642 20.2609 201.445 19.8875C202.266 19.4955 202.929 18.9635 203.433 18.2915V20.2515H207.381V10H203.433V13.2795C203.433 14.5115 203.125 15.4635 202.509 16.1355C201.893 16.7889 201.044 17.1155 199.961 17.1155C198.897 17.1155 198.057 16.7889 197.441 16.1355C196.825 15.4635 196.517 14.5115 196.517 13.2795V10H192.597ZM212.369 10V20.2515H216.289V11.6835C216.289 11.0445 216.371 10.4833 216.537 10H212.369ZM222.984 10C223.15 10.4833 223.233 11.0445 223.233 11.6835V20.2515H227.153V11.1515C227.153 10.7505 227.132 10.3667 227.09 10H222.984ZM232.616 10V15.4355C232.616 18.6462 234.268 20.2515 237.572 20.2515H240.036V16.9475H238.216C237.619 16.9475 237.19 16.8355 236.928 16.6115C236.686 16.3689 236.564 15.9862 236.564 15.4635V10H232.616Z" fill="black"/>
<path id="Subtract_2" fill-rule="evenodd" clip-rule="evenodd" d="M32.6099 9.05099H27.7733V4.284H31.6933V6.692C32.1973 5.87067 32.8507 5.22667 33.6533 4.76C34.4747 4.29333 35.408 4.06 36.4533 4.06V8.176H35.4173C34.1853 8.176 33.252 8.46533 32.6173 9.044C32.6149 9.04633 32.6124 9.04866 32.6099 9.05099ZM54.2426 9.05099C54.0906 8.57661 53.8943 8.12628 53.6537 7.7C53.019 6.524 52.1137 5.61867 50.9377 4.984C49.7803 4.34933 48.4643 4.032 46.9897 4.032C45.459 4.032 44.1057 4.35867 42.9297 5.012C41.7537 5.66533 40.839 6.59867 40.1857 7.812C39.9743 8.20449 39.7972 8.61749 39.6542 9.05099H43.6956C43.8858 8.70451 44.1252 8.40351 44.4137 8.148C45.0857 7.55067 45.907 7.252 46.8777 7.252C47.9043 7.252 48.7723 7.56 49.4817 8.176C49.7838 8.43042 50.0233 8.72208 50.2001 9.05099H54.2426ZM73.7629 9.05099V4.284H69.8149V6.496C69.2922 5.78667 68.5922 5.19867 67.7149 4.732C66.8562 4.26533 65.8482 4.032 64.6909 4.032C63.3656 4.032 62.1616 4.35867 61.0789 5.012C60.0149 5.66533 59.1656 6.59867 58.5309 7.812C58.3307 8.20627 58.1631 8.61927 58.028 9.05099H62.5147C62.8446 8.61412 63.234 8.26645 63.6829 8.008C64.2989 7.65333 64.9709 7.476 65.6989 7.476C66.4269 7.476 67.1082 7.66267 67.7429 8.036C68.1955 8.28891 68.5816 8.62724 68.9013 9.05099H73.7629ZM83.2755 9.05099H79.3275V7.504H77.4795V4.284H79.3275V0.448H83.2755V4.284H86.7475V7.504H83.2755V9.05099ZM104.716 9.05099C104.564 8.57661 104.368 8.12628 104.127 7.7C103.492 6.524 102.587 5.61867 101.411 4.984C100.254 4.34933 98.9376 4.032 97.4629 4.032C95.9323 4.032 94.5789 4.35867 93.4029 5.012C92.2269 5.66533 91.3123 6.59867 90.6589 7.812C90.4476 8.20449 90.2704 8.61749 90.1275 9.05099H94.1689C94.3591 8.70451 94.5985 8.40351 94.8869 8.148C95.5589 7.55067 96.3803 7.252 97.3509 7.252C98.3776 7.252 99.2456 7.56 99.9549 8.176C100.257 8.43042 100.497 8.72208 100.673 9.05099H104.716ZM130.438 9.05099L127.268 0.224H122.704L119.534 9.05099H123.488L124.972 4.76L126.456 9.05099H130.438ZM141.705 9.05099H137.488C137.63 8.62627 137.806 8.22261 138.015 7.84C138.668 6.62667 139.574 5.69333 140.731 5.04C141.888 4.368 143.214 4.032 144.707 4.032C146.63 4.032 148.216 4.51733 149.467 5.488C150.62 6.35245 151.426 7.54012 151.886 9.05099H147.593C147.365 8.59979 147.047 8.23346 146.639 7.952C146.116 7.56 145.463 7.364 144.679 7.364C143.559 7.364 142.672 7.77467 142.019 8.596C141.904 8.73701 141.8 8.88867 141.705 9.05099ZM159.669 9.05099H155.452C155.594 8.62627 155.77 8.22261 155.979 7.84C156.632 6.62667 157.537 5.69333 158.695 5.04C159.852 4.368 161.177 4.032 162.671 4.032C164.593 4.032 166.18 4.51733 167.431 5.488C168.583 6.35245 169.39 7.54012 169.85 9.05099H165.557C165.329 8.59979 165.011 8.23346 164.603 7.952C164.08 7.56 163.427 7.364 162.643 7.364C161.523 7.364 160.636 7.77467 159.983 8.596C159.868 8.73701 159.763 8.88867 159.669 9.05099ZM188.454 9.05099C188.301 8.62855 188.112 8.22488 187.887 7.84C187.196 6.62667 186.244 5.69333 185.031 5.04C183.817 4.368 182.464 4.032 180.971 4.032C179.477 4.032 178.124 4.368 176.911 5.04C175.697 5.69333 174.736 6.62667 174.027 7.84C173.807 8.22488 173.623 8.62855 173.474 9.05099H177.76C177.859 8.90931 177.968 8.77632 178.087 8.652C178.852 7.84933 179.795 7.448 180.915 7.448C182.035 7.448 182.977 7.84933 183.743 8.652C183.867 8.77632 183.981 8.90931 184.086 9.05099H188.454ZM216.958 9.05099H212.578V4.284H216.498V6.216C217.02 5.544 217.683 5.02133 218.486 4.648C219.307 4.256 220.203 4.06 221.174 4.06C223.022 4.06 224.515 4.648 225.654 5.824C226.474 6.65758 226.999 7.73324 227.228 9.05099H222.981C222.853 8.80901 222.699 8.59201 222.518 8.4C221.902 7.728 221.062 7.392 219.998 7.392C218.915 7.392 218.056 7.728 217.422 8.4C217.241 8.59201 217.086 8.80901 216.958 9.05099ZM4.245 9.05099C4.36434 7.50612 4.78172 6.10379 5.49716 4.844C6.37449 3.31333 7.55982 2.128 9.05316 1.288C10.5652 0.429334 12.2545 0 14.1212 0C16.3052 0 18.2185 0.560001 19.8612 1.68C21.5038 2.8 22.6518 4.34933 23.3052 6.328H18.7972C18.3492 5.39467 17.7145 4.69467 16.8932 4.228C16.0905 3.76133 15.1572 3.528 14.0932 3.528C12.9545 3.528 11.9372 3.79867 11.0412 4.34C10.1638 4.86267 9.47316 5.60933 8.96916 6.58C8.60469 7.30893 8.37708 8.13259 8.28631 9.05099H4.245ZM236.773 9.05099H232.825V7.504H230.977V4.284H232.825V0.448H236.773V4.284H240.245V7.504H236.773V9.05099ZM207.59 9.05099H203.642V4.284H207.59V9.05099ZM196.726 9.05099H192.806V4.284H196.726V9.05099Z" fill="black"/>
</g>
<defs>
<filter id="filter0_d_1_168" x="0" y="0" width="244.245" height="28.5035" filterUnits="userSpaceOnUse" color-interpolation-filters="sRGB">
<feFlood flood-opacity="0" result="BackgroundImageFix"/>
<feColorMatrix in="SourceAlpha" type="matrix" values="0 0 0 0 0 0 0 0 0 0 0 0 0 0 0 0 0 0 127 0" result="hardAlpha"/>
<feOffset dy="4"/>
<feGaussianBlur stdDeviation="2"/>
<feComposite in2="hardAlpha" operator="out"/>
<feColorMatrix type="matrix" values="0 0 0 0 0 0 0 0 0 0 0 0 0 0 0 0 0 0 0.25 0"/>
<feBlend mode="normal" in2="BackgroundImageFix" result="effect1_dropShadow_1_168"/>
<feBlend mode="normal" in="SourceGraphic" in2="effect1_dropShadow_1_168" result="shape"/>
</filter>
</defs>
</svg>
